<svg width="40" height="40" viewBox="0 0 40 40" fill="none" xmlns="http://www.w3.org/2000/svg">
<path d="M20 40C8.97912 40 0 31.0157 0 19.9884C0 8.96111 8.97912 0 20 0C31.0209 0 40 8.98433 40 20.0116C40 31.0389 31.0209 40 20 40ZM20 1.95009C10.0464 1.95009 1.97216 10.0522 1.97216 19.9884C1.97216 29.9246 10.0696 38.0267 20 38.0267C29.9536 38.0267 38.0278 29.9246 38.0278 19.9884C38.0278 10.0522 29.9536 1.95009 20 1.95009Z" fill="url(#paint0_linear_24_1355)"/>
<path d="M26.8213 25.1887C26.4269 25.1887 26.0093 25.0262 25.7076 24.7244L19.884 18.8974L14.2923 24.4923C13.6891 25.0959 12.6914 25.0959 12.0649 24.4923C11.4617 23.8887 11.4617 22.8904 12.0649 22.2636L18.7471 15.5776C19.0487 15.2758 19.4431 15.1133 19.8608 15.1133C20.2784 15.1133 20.6728 15.2758 20.9745 15.5776L27.9118 22.519C28.5151 23.1226 28.5151 24.1208 27.9118 24.7476C27.6334 25.0262 27.2158 25.1887 26.8213 25.1887Z" fill="url(#paint1_linear_24_1355)"/>
<defs>
<linearGradient id="paint0_linear_24_1355" x1="-0.79096" y1="20" x2="41.1299" y2="20" gradientUnits="userSpaceOnUse">
<stop stop-color="#6DC5D3"/>
<stop offset="1" stop-color="#2E729D"/>
</linearGradient>
<linearGradient id="paint1_linear_24_1355" x1="-0.79096" y1="20" x2="41.1299" y2="20" gradientUnits="userSpaceOnUse">
<stop stop-color="#6DC5D3"/>
<stop offset="1" stop-color="#2E729D"/>
</linearGradient>
</defs>
</svg>
